<?xml version="1.0" encoding="UTF-8" standalone="no"?>
<!-- Generator: Adobe Illustrator 26.5.0, SVG Export Plug-In . SVG Version: 6.00 Build 0)  -->

<svg
   version="1.1"
   x="0px"
   y="0px"
   viewBox="0 0 41665.526 56596.797"
   xml:space="preserve"
   id="svg1085"
   width="41665.527"
   height="56596.797"
   xmlns="http://www.w3.org/2000/svg"
   xmlns:svg="http://www.w3.org/2000/svg"><defs
   id="defs1085" />
<style
   type="text/css"
   id="style1">
	.st0{fill:#38D652;}
	.st1{fill:none;}
	.st2{fill:#FFFFFF;}
	.st3{fill:#CF1506;}
	.st4{fill:#070707;}
	.st5{fill:#0E7178;}
	.st6{fill:#9CE0FF;}
	.st7{fill:#6E00EF;}
	.st8{fill:#FC872E;}
	.st9{fill:#90FFEF;}
</style>

<g
   id="g1085"
   transform="translate(132074.04,-5698.9806)">
		<polygon
   class="st1"
   points="37.34,47.9 37.34,51.35 40.79,51.35 44.24,51.35 44.24,47.9 40.79,47.9 "
   id="polygon1068" />
		<polygon
   class="st1"
   points="44.24,58.25 40.79,58.25 37.34,58.25 37.34,61.7 40.79,61.7 44.24,61.7 "
   id="polygon1069" />
		<polygon
   class="st1"
   points="61.48,61.7 61.48,58.25 58.03,58.25 54.58,58.25 54.58,61.7 54.58,65.15 58.03,65.15 61.48,65.15 "
   id="polygon1070" />
		<rect
   x="33.889999"
   y="51.349998"
   class="st1"
   width="3.45"
   height="3.45"
   id="rect1070" />
		<polygon
   class="st1"
   points="37.34,68.59 40.79,68.59 44.24,68.59 47.68,68.59 47.68,65.15 44.24,65.15 40.79,65.15 37.34,65.15 37.34,61.7 33.89,61.7 33.89,65.15 33.89,68.59 "
   id="polygon1071" />
		<polygon
   class="st1"
   points="47.68,51.35 44.24,51.35 44.24,54.8 44.24,58.25 47.68,58.25 47.68,54.8 "
   id="polygon1072" />
		<polygon
   class="st1"
   points="75.27,54.8 75.27,58.25 78.72,58.25 82.17,58.25 82.17,54.8 82.17,51.35 78.72,51.35 75.27,51.35 "
   id="polygon1073" />
		<polygon
   class="st1"
   points="54.58,47.9 54.58,51.35 58.03,51.35 61.48,51.35 61.48,47.9 61.48,44.46 58.03,44.46 54.58,44.46 "
   id="polygon1074" />
		<polygon
   class="st1"
   points="71.82,51.35 75.27,51.35 75.27,47.9 75.27,44.46 71.82,44.46 68.37,44.46 68.37,47.9 68.37,51.35 "
   id="polygon1075" />
		<polygon
   class="st1"
   points="61.48,54.8 61.48,58.25 64.93,58.25 68.37,58.25 68.37,54.8 68.37,51.35 64.93,51.35 61.48,51.35 "
   id="polygon1076" />
		<polygon
   class="st1"
   points="102.86,58.25 99.41,58.25 99.41,61.7 99.41,65.15 102.86,65.15 102.86,61.7 "
   id="polygon1077" />
		<rect
   x="95.959999"
   y="54.799999"
   class="st1"
   width="3.45"
   height="3.45"
   id="rect1077" />
		<rect
   x="89.059998"
   y="51.349998"
   class="st1"
   width="3.45"
   height="3.45"
   id="rect1078" />
		<rect
   x="99.410004"
   y="51.349998"
   class="st1"
   width="3.45"
   height="3.45"
   id="rect1079" />
		<polygon
   class="st1"
   points="92.51,65.15 92.51,68.59 95.96,68.59 99.41,68.59 99.41,65.15 95.96,65.15 "
   id="polygon1079" />
		<polygon
   class="st1"
   points="92.51,47.9 92.51,51.35 95.96,51.35 99.41,51.35 99.41,47.9 95.96,47.9 "
   id="polygon1080" />
		<polygon
   class="st1"
   points="75.27,61.7 75.27,58.25 71.82,58.25 68.37,58.25 68.37,61.7 68.37,65.15 71.82,65.15 75.27,65.15 "
   id="polygon1081" />
		<polygon
   class="st1"
   points="68.37,23.77 64.93,23.77 64.93,27.21 68.37,27.21 68.37,30.66 68.37,34.11 68.37,37.56 64.93,37.56 64.93,41.01 68.37,41.01 71.82,41.01 75.27,41.01 75.27,37.56 71.82,37.56 71.82,34.11 71.82,30.66 71.82,27.21 71.82,23.77 71.82,20.32 68.37,20.32 "
   id="polygon1082" />
		<rect
   x="89.059998"
   y="61.700001"
   class="st1"
   width="3.45"
   height="3.45"
   id="rect1082" />
		<polygon
   class="st2"
   points="71.82,65.15 68.37,65.15 68.37,68.59 68.37,72.04 71.82,72.04 75.27,72.04 75.27,68.59 75.27,65.15 "
   id="polygon1083" />
		<path
   class="st2"
   d="M 54.58,65.15 V 61.7 58.25 h 3.45 3.45 V 54.8 51.35 H 58.03 54.58 V 47.9 44.45 H 51.13 47.68 44.23 40.78 37.33 33.88 30.43 27 v 3.45 3.45 3.45 3.45 3.45 3.45 3.45 3.45 h 3.45 3.45 3.45 3.45 3.45 3.45 3.45 3.45 3.45 3.45 V 68.6 65.15 H 58.05 Z M 44.24,68.59 H 40.79 37.34 33.89 V 65.14 61.7 h 3.45 v -3.45 h 3.45 3.45 V 54.8 51.35 h -3.45 -3.45 v 3.45 h -3.45 v -3.45 h 3.45 V 47.9 h 3.45 3.45 v 3.45 h 3.45 v 3.45 3.45 h -3.45 v 3.45 h -3.45 -3.45 v 3.45 h 3.45 3.45 3.45 v 3.45 h -3.45 z"
   id="path1083" />
		<polygon
   class="st2"
   points="68.37,61.7 68.37,58.25 64.93,58.25 61.48,58.25 61.48,61.7 61.48,65.15 64.93,65.15 68.37,65.15 "
   id="polygon1084" />
		<polygon
   class="st2"
   points="68.37,54.8 68.37,58.25 71.82,58.25 75.27,58.25 75.27,54.8 75.27,51.35 71.82,51.35 68.37,51.35 "
   id="polygon1085" />
		<path
   class="st2"
   d="m 106.31,44.46 h -3.45 -3.45 -3.45 -3.45 -3.45 -3.45 -3.45 v -3.45 -3.45 -3.45 -3.45 -3.45 -3.45 -3.45 -3.45 h -3.45 -3.45 -3.45 -3.45 -3.45 -3.45 -3.45 -3.45 v 3.45 3.45 3.45 3.45 3.45 3.45 3.45 3.45 h 3.45 3.45 v 3.45 3.45 h 3.45 3.45 V 47.9 44.45 h 3.45 3.45 v 3.45 3.45 h 3.45 3.45 v 3.45 3.45 h -3.45 -3.45 v 3.45 3.45 h 3.45 3.45 v 3.45 3.45 h 3.45 3.45 3.45 3.45 3.45 3.45 3.45 3.45 V 68.6 65.15 61.7 58.25 54.8 51.35 47.9 44.45 h -3.45 z M 71.82,41.01 h -3.45 -3.45 v -3.45 h 3.45 v -3.45 -3.45 -3.45 h -3.45 v -3.45 h 3.45 v -3.45 h 3.45 v 3.45 3.45 3.45 3.45 3.45 h 3.45 v 3.45 z M 95.96,68.59 H 92.51 V 65.14 H 89.06 V 61.7 h 3.45 v 3.45 h 3.45 3.45 V 61.7 58.25 H 95.96 V 54.8 h 3.45 v -3.45 h -3.45 -3.45 v 3.45 h -3.45 v -3.45 h 3.45 V 47.9 h 3.45 3.45 v 3.45 h 3.45 v 3.45 h -3.45 v 3.45 h 3.45 v 3.45 3.45 h -3.45 v 3.45 h -3.45 z"
   id="path1085" />
	</g>
</svg>
