<?xml version="1.0" encoding="UTF-8" standalone="no"?>
<!-- Generator: Adobe Illustrator 26.5.0, SVG Export Plug-In . SVG Version: 6.00 Build 0)  -->

<svg
   version="1.1"
   x="0px"
   y="0px"
   viewBox="0 0 34717.909 74255.735"
   xml:space="preserve"
   id="svg1085"
   width="34717.91"
   height="74255.734"
   xmlns="http://www.w3.org/2000/svg"
   xmlns:svg="http://www.w3.org/2000/svg"><defs
   id="defs1085" />
<style
   type="text/css"
   id="style1">
	.st0{fill:#38D652;}
	.st1{fill:none;}
	.st2{fill:#FFFFFF;}
	.st3{fill:#CF1506;}
	.st4{fill:#070707;}
	.st5{fill:#0E7178;}
	.st6{fill:#9CE0FF;}
	.st7{fill:#6E00EF;}
	.st8{fill:#FC872E;}
	.st9{fill:#90FFEF;}
</style>


<g
   id="g1099"
   transform="translate(73157.294,-190955.02)"><polygon
     class="st1"
     points="28.96,180.68 32.41,180.68 32.41,177.23 28.96,177.23 25.51,177.23 25.51,180.68 "
     id="polygon521"
     transform="translate(-185.22,-1.0956205)" /><polygon
     class="st1"
     points="22.06,177.23 25.51,177.23 25.51,173.78 25.51,170.33 22.06,170.33 22.06,173.78 18.61,173.78 18.61,177.23 15.16,177.23 15.16,180.68 15.16,184.13 18.61,184.13 18.61,187.57 22.06,187.57 22.06,191.02 25.51,191.02 25.51,187.57 28.96,187.57 28.96,184.13 25.51,184.13 22.06,184.13 22.06,180.68 "
     id="polygon522"
     transform="translate(-185.22,-1.0956205)" /><rect
     x="-142.47"
     y="186.4744"
     class="st1"
     width="3.45"
     height="3.45"
     id="rect522" /><polygon
     class="st1"
     points="46.2,159.99 46.2,163.44 49.65,163.44 49.65,159.99 53.09,159.99 53.09,156.54 49.65,156.54 46.2,156.54 42.75,156.54 42.75,159.99 "
     id="polygon523"
     transform="translate(-185.22,-1.0956205)" /><polygon
     class="st1"
     points="66.89,163.44 63.44,163.44 63.44,166.88 66.89,166.88 70.34,166.88 73.78,166.88 73.78,163.44 70.34,163.44 "
     id="polygon524"
     transform="translate(-185.22,-1.0956205)" /><polygon
     class="st1"
     points="70.34,173.78 70.34,170.33 66.89,170.33 66.89,173.78 66.89,177.23 70.34,177.23 70.34,180.68 70.34,184.13 66.89,184.13 66.89,180.68 63.44,180.68 63.44,177.23 59.99,177.23 59.99,180.68 59.99,184.13 63.44,184.13 63.44,187.57 66.89,187.57 66.89,191.02 70.34,191.02 70.34,187.57 73.78,187.57 73.78,184.13 77.23,184.13 77.23,180.68 77.23,177.23 73.78,177.23 73.78,173.78 "
     id="polygon525"
     transform="translate(-185.22,-1.0956205)" /><rect
     x="-128.67999"
     y="169.23439"
     class="st1"
     width="3.45"
     height="3.45"
     id="rect525" /><g
     id="g1098"
     style="fill:#333333"
     transform="translate(-17.88209,15.46386)"><rect
       x="-131.48792"
       y="129.64052"
       class="st4"
       width="3.45"
       height="3.45"
       id="rect546"
       style="fill:#333333" /><g
       id="g1097"
       style="fill:#333333"><g
         id="g1095"
         style="fill:#333333"><rect
           x="-124.58791"
           y="150.32053"
           class="st4"
           width="3.45"
           height="3.45"
           id="rect534"
           style="fill:#333333" /><polygon
           class="st4"
           points="39.3,166.88 35.85,166.88 35.85,170.33 35.85,173.78 39.3,173.78 39.3,170.33 "
           id="polygon535"
           transform="translate(-167.33791,-16.55948)"
           style="fill:#333333" /><polygon
           class="st4"
           points="35.85,149.64 32.41,149.64 32.41,153.09 32.41,156.54 32.41,159.99 35.85,159.99 35.85,163.44 39.3,163.44 39.3,166.88 42.75,166.88 42.75,163.44 42.75,159.99 39.3,159.99 39.3,156.54 35.85,156.54 35.85,153.09 "
           id="polygon537"
           transform="translate(-167.33791,-16.55948)"
           style="fill:#333333" /><polygon
           class="st4"
           points="35.85,166.88 35.85,163.44 32.41,163.44 28.96,163.44 28.96,166.88 32.41,166.88 "
           id="polygon538"
           transform="translate(-167.33791,-16.55948)"
           style="fill:#333333" /></g><rect
         x="-131.48792"
         y="122.74052"
         class="st4"
         width="3.45"
         height="3.45"
         id="rect547"
         style="fill:#333333" /><polygon
         class="st4"
         points="49.65,139.3 53.09,139.3 53.09,135.85 56.54,135.85 56.54,132.4 53.09,132.4 49.65,132.4 46.2,132.4 46.2,135.85 49.65,135.85 "
         id="polygon548"
         transform="translate(-167.33791,-16.55948)"
         style="fill:#333333" /></g></g><g
     id="g1100"><polygon
       class="st3"
       points="142.75,173.78 139.3,173.78 135.85,173.78 135.85,177.23 135.85,180.68 135.85,184.13 135.85,187.57 139.3,187.57 142.75,187.57 146.2,187.57 149.65,187.57 149.65,184.13 146.2,184.13 146.2,180.68 146.2,177.23 146.2,173.78 "
       id="polygon1099"
       transform="translate(-281.77,-1.095628)"
       style="fill:#00ff0c;fill-opacity:1" /><g
       id="g1087"
       transform="translate(-17.88209,15.46386)"><polygon
         class="st3"
         points="25.51,173.78 25.51,177.23 28.96,177.23 32.41,177.23 32.41,173.78 35.85,173.78 35.85,170.33 35.85,166.88 32.41,166.88 28.96,166.88 25.51,166.88 25.51,170.33 "
         id="polygon533"
         transform="translate(-167.33791,-16.55948)"
         style="fill:#00ff0c;fill-opacity:1" /><polygon
         class="st3"
         points="49.65,173.78 53.09,173.78 56.54,173.78 56.54,170.33 59.99,170.33 59.99,166.88 56.54,166.88 56.54,163.44 56.54,159.99 53.09,159.99 49.65,159.99 49.65,163.44 49.65,166.88 49.65,170.33 "
         id="polygon534"
         transform="translate(-167.33791,-16.55948)"
         style="fill:#00ff0c;fill-opacity:1" /><rect
         x="-110.79791"
         y="136.53052"
         class="st3"
         width="3.45"
         height="3.45"
         id="rect543"
         style="fill:#00ff0c;fill-opacity:1" /><polygon
         class="st3"
         points="39.3,139.3 39.3,142.75 39.3,146.2 39.3,149.64 39.3,153.09 42.75,153.09 42.75,156.54 46.2,156.54 49.65,156.54 53.09,156.54 53.09,153.09 56.54,153.09 56.54,149.64 53.09,149.64 49.65,149.64 46.2,149.64 46.2,146.2 49.65,146.2 49.65,142.75 46.2,142.75 46.2,139.3 42.75,139.3 "
         id="polygon546"
         transform="translate(-167.33791,-16.55948)"
         style="fill:#00ff0c;fill-opacity:1" /><polygon
         class="st3"
         points="42.75,135.85 46.2,135.85 46.2,132.4 42.75,132.4 39.3,132.4 35.85,132.4 35.85,135.85 39.3,135.85 "
         id="polygon549"
         transform="translate(-167.33791,-16.55948)"
         style="fill:#00ff0c;fill-opacity:1" /><polygon
         class="st3"
         points="59.99,132.4 59.99,128.95 56.54,128.95 56.54,125.51 53.09,125.51 53.09,128.95 49.65,128.95 49.65,132.4 53.09,132.4 56.54,132.4 "
         id="polygon550"
         transform="translate(-167.33791,-16.55948)"
         style="fill:#00ff0c;fill-opacity:1" /></g></g><g
     id="g1096"
     style="fill:#ffffff"
     transform="translate(-17.88209,15.46386)"><g
       id="g1086"
       style="fill:#ffffff"><rect
         x="-131.48792"
         y="146.88052"
         class="st2"
         width="3.45"
         height="3.45"
         id="rect537"
         style="fill:#ffffff;fill-opacity:1" /><polygon
         class="st2"
         points="42.75,170.33 42.75,166.88 39.3,166.88 39.3,170.33 39.3,173.78 42.75,173.78 46.2,173.78 49.65,173.78 49.65,170.33 49.65,166.88 49.65,163.44 46.2,163.44 46.2,159.99 42.75,159.99 42.75,163.44 42.75,166.88 46.2,166.88 46.2,170.33 "
         id="polygon540"
         transform="translate(-167.33791,-16.55948)"
         style="fill:#ffffff;fill-opacity:1" /><polygon
         class="st2"
         points="32.41,153.09 32.41,149.64 35.85,149.64 35.85,146.2 39.3,146.2 39.3,142.75 35.85,142.75 32.41,142.75 32.41,146.2 28.96,146.2 28.96,149.64 28.96,153.09 28.96,156.54 28.96,159.99 28.96,163.44 32.41,163.44 35.85,163.44 35.85,159.99 32.41,159.99 32.41,156.54 "
         id="polygon541"
         transform="translate(-167.33791,-16.55948)"
         style="fill:#ffffff;fill-opacity:1" /><polygon
         class="st2"
         points="42.75,156.54 42.75,153.09 39.3,153.09 39.3,149.64 35.85,149.64 35.85,153.09 35.85,156.54 39.3,156.54 39.3,159.99 42.75,159.99 "
         id="polygon544"
         transform="translate(-167.33791,-16.55948)"
         style="fill:#ffffff;fill-opacity:1" /><rect
         x="-121.13791"
         y="129.64052"
         class="st2"
         width="3.45"
         height="3.45"
         id="rect545"
         style="fill:#ffffff;fill-opacity:1" /><polygon
         class="st2"
         points="53.09,142.75 56.54,142.75 59.99,142.75 59.99,139.3 56.54,139.3 56.54,135.85 53.09,135.85 53.09,139.3 49.65,139.3 49.65,135.85 46.2,135.85 42.75,135.85 39.3,135.85 35.85,135.85 35.85,139.3 39.3,139.3 42.75,139.3 46.2,139.3 46.2,142.75 49.65,142.75 "
         id="polygon547"
         transform="translate(-167.33791,-16.55948)"
         style="fill:#ffffff;fill-opacity:1" /><polygon
         class="st2"
         points="46.2,122.06 42.75,122.06 39.3,122.06 39.3,125.51 35.85,125.51 35.85,128.95 35.85,132.4 39.3,132.4 42.75,132.4 46.2,132.4 49.65,132.4 49.65,128.95 53.09,128.95 53.09,125.51 53.09,122.06 49.65,122.06 "
         id="polygon551"
         transform="translate(-167.33791,-16.55948)"
         style="fill:#ffffff;fill-opacity:1" /></g></g><g
     id="g1094"
     style="fill:#808080"
     transform="translate(-17.88209,15.46386)"><polygon
       class="st2"
       points="66.89,166.88 63.44,166.88 63.44,163.44 59.99,163.44 59.99,159.99 59.99,156.54 56.54,156.54 53.09,156.54 53.09,159.99 56.54,159.99 56.54,163.44 56.54,166.88 59.99,166.88 59.99,170.33 59.99,173.78 63.44,173.78 63.44,177.23 63.44,180.68 66.89,180.68 66.89,184.13 70.34,184.13 70.34,180.68 70.34,177.23 66.89,177.23 66.89,173.78 66.89,170.33 "
       id="polygon536"
       transform="translate(-167.33791,-16.55948)"
       style="fill:#808080;fill-opacity:1" /><polygon
       class="st2"
       points="28.96,184.13 32.41,184.13 35.85,184.13 35.85,180.68 39.3,180.68 39.3,177.23 39.3,173.78 35.85,173.78 35.85,177.23 32.41,177.23 32.41,180.68 28.96,180.68 25.51,180.68 22.06,180.68 22.06,184.13 25.51,184.13 "
       id="polygon532"
       transform="translate(-167.33791,-16.55948)"
       style="fill:#808080;fill-opacity:1" /><polygon
       class="st4"
       points="49.65,177.23 49.65,180.68 53.09,180.68 53.09,177.23 53.09,173.78 49.65,173.78 "
       id="polygon530"
       transform="translate(-167.33791,-16.55948)"
       style="fill:#808080" /><g
       id="g1093"
       style="fill:#808080"><rect
         x="-131.48792"
         y="164.12051"
         class="st4"
         width="3.45"
         height="3.45"
         id="rect528"
         style="fill:#808080" /><rect
         x="-134.92792"
         y="157.22052"
         class="st4"
         width="3.45"
         height="3.45"
         id="rect532"
         style="fill:#808080" /><g
         id="g1092"
         style="fill:#808080"><rect
           x="-121.13791"
           y="171.01053"
           class="st4"
           width="3.45"
           height="3.45"
           id="rect526"
           style="fill:#808080" /><rect
           x="-145.27791"
           y="160.67052"
           class="st4"
           width="3.45"
           height="3.45"
           id="rect529"
           style="fill:#808080" /><g
           id="g1091"
           style="fill:#808080"><rect
             x="-114.24791"
             y="136.53052"
             class="st4"
             width="3.45"
             height="3.45"
             id="rect544"
             style="fill:#808080" /><g
             id="g1090"
             style="fill:#808080"><polygon
               class="st4"
               points="15.16,173.78 11.72,173.78 11.72,177.23 11.72,180.68 11.72,184.13 11.72,187.57 15.16,187.57 15.16,191.02 18.61,191.02 18.61,194.47 22.06,194.47 25.51,194.47 28.96,194.47 28.96,191.02 32.41,191.02 32.41,187.57 35.85,187.57 35.85,184.13 32.41,184.13 28.96,184.13 28.96,187.57 25.51,187.57 25.51,191.02 22.06,191.02 22.06,187.57 18.61,187.57 18.61,184.13 15.16,184.13 15.16,180.68 15.16,177.23 18.61,177.23 18.61,173.78 22.06,173.78 22.06,170.33 25.51,170.33 25.51,166.88 22.06,166.88 18.61,166.88 18.61,170.33 15.16,170.33 "
               id="polygon527"
               transform="translate(-167.33791,-16.55948)"
               style="fill:#808080" /><polygon
               class="st4"
               points="59.99,177.23 63.44,177.23 63.44,173.78 59.99,173.78 56.54,173.78 56.54,177.23 56.54,180.68 56.54,184.13 56.54,187.57 59.99,187.57 59.99,191.02 63.44,191.02 63.44,194.47 66.89,194.47 70.34,194.47 73.78,194.47 73.78,191.02 77.23,191.02 77.23,187.57 80.68,187.57 80.68,184.13 80.68,180.68 80.68,177.23 80.68,173.78 77.23,173.78 77.23,170.33 73.78,170.33 73.78,166.88 70.34,166.88 66.89,166.88 66.89,170.33 70.34,170.33 70.34,173.78 73.78,173.78 73.78,177.23 77.23,177.23 77.23,180.68 77.23,184.13 73.78,184.13 73.78,187.57 70.34,187.57 70.34,191.02 66.89,191.02 66.89,187.57 63.44,187.57 63.44,184.13 59.99,184.13 59.99,180.68 "
               id="polygon529"
               transform="translate(-167.33791,-16.55948)"
               style="fill:#808080" /><path
               id="polygon543"
               class="st4"
               d="m 59.990254,149.63956 v 3.45117 3.44922 3.44922 h 3.449218 3.449219 v -3.44922 h -3.449219 v -3.44922 -3.45117 z"
               transform="translate(-167.33791,-16.55948)"
               style="fill:#808080" /><polygon
               class="st4"
               points="35.85,170.33 35.85,173.78 39.3,173.78 39.3,170.33 39.3,166.88 35.85,166.88 "
               id="polygon1087"
               transform="translate(-136.29868,-33.79909)"
               style="fill:#808080" /></g></g></g></g></g></g></svg>
