<?xml version="1.0" encoding="UTF-8"?>
<svg id="Layer_1" xmlns="http://www.w3.org/2000/svg" version="1.1" viewBox="0 0 700 700">
  <!-- Generator: Adobe Illustrator 30.0.0, SVG Export Plug-In . SVG Version: 2.1.1 Build 123)  -->
  <path d="M632.29,285.43l-5.66-19.09c-19.1-1.45-52.46-1.01-38.58-29.5,2.83-5.83,14.88-16.93,15.38-19.7.6-3.34-5.82-15.54-8.27-17.32-3.39-2.47-15.25,1.66-20.09,2.04-21.29,1.7-30.67-2.35-23.94-24.94,1.71-5.74,8.22-15.92,8.99-19.96.74-3.91-11.96-12.76-15.22-14.92-10.55,5.58-26.29,16.9-38.37,10.4-15.12-8.14.08-39.46-4.93-45.07-1.47-1.64-14.05-7.95-16.28-7.34-2.9.8-15.55,13.16-21.07,16.02-20.64,10.71-26.66-4.54-28.54-22.8-.33-3.23.7-14.74-1.06-15.93l-21.99-4.36c-2.64,16.37-27.29,40.39-41.3,21.65-5.6-7.5-8.27-19.87-11.89-28.61l-23,.48c-5.47,18.23-13.44,48.38-37.8,29.81-6.46-4.92-12.92-13.91-16.24-21.24-2.31-1.45-20.94,3.18-21.71,5.47.77,23.39-3.74,55.42-34.05,34.77-6.48-4.41-12.47-14.87-20.81-11.63-.97.38-10.94,7.1-11.34,7.65-2.29,3.11,2.57,18.02,2.94,23.2,1.31,18.26-5.84,26.89-24.42,21.42-6.55-1.93-15.21-8.35-20.71-9.4-1.18-.23-1.11-.49-2.26.26-1.53.98-13.5,12.6-13.5,13.58,12.07,21.82,25.42,49.65-13.47,46.49-5.11-.41-14.62-4.06-18.1-3.94-2.5.08-10.98,15.24-10.26,18.25.5,2.08,10.1,11.79,12.26,14.8,5.55,7.71,12.23,18.52,3.8,26.92-9.5,9.47-26.29,5.84-38.28,8.43l-4.8,22.43c5.86,1.12,22.88,5.85,31.08,9.39l-17.44,28.42,59.58-15.81,15.62-1.41,22.26-2.02,23.49-1.91,56.26,47.78-.57-25.48-5.68-20.07,12.12-9.88-6.62-19.59,6.06-21.21,12.12,3.03,10.35,15.11,9.16,14.38,11.37,19.12,22.73,10.51,17.43,25.81,25.19,15.85-15.15-34.1-2.46-19.99-20.46-16.25,1.13-2.86,10.8-12.43,19.32,5.69,20.46,2.27,31.26,25.5,11.37,9.55,14.01,7.65,25.2,17.54-11.37-19.7-1.71-7.4-10.22-15.29-9.1-6.69,22.74-.96,39.02,11.47,24.63,21.03,22.34-11.02,8.91-4.4,21.6,3.41,49.78,19.54-13.91-35.75,21.87-17.15ZM499.36,256.27l-42.45,3.41-30.32-21.59-25.99-12.5-51.98,1.13-23.39-13.64-21.66-18.18-17.32,7.96-13.87,7.95-14.72,15.91-20.79,11.37-7.8,20.46-16.46-4.55-15.6,12.5-18.19-1.13-1.53.17-8.57.98c28.56-72.17,98.96-123.22,181.29-123.22s157.62,54.67,184.11,130.84l-.98.32-6.75-3.63-27.03-14.56Z"/>
  <g>
    <path d="M189.54,599.62h19.48c11.34,0,18.62,6.71,18.62,17.19s-7.28,17.19-18.62,17.19h-19.48v-34.38ZM209.02,625.16c4.67,0,7.78-3.4,7.78-8.39s-3.11-8.31-7.78-8.31h-8.68v16.7h8.68Z"/>
    <path d="M248.09,599.62h32.45v8.59h-21.65v4.42h17.97v7.61h-17.97v5.16h21.65v8.59h-32.45v-34.38Z"/>
    <path d="M300.92,599.62h13.55l13.26,21.08v-21.08h10.31v34.38h-13.55l-13.26-21.24v21.24h-10.31v-34.38Z"/>
    <path d="M368.35,599.62l9.37,25.21h1.47l9.37-25.21h11.54l-13.46,34.38h-16.33l-13.46-34.38h11.5Z"/>
    <path d="M418.92,599.62h32.45v8.59h-21.65v4.42h17.96v7.61h-17.96v5.16h21.65v8.59h-32.45v-34.38Z"/>
    <path d="M471.75,599.62h22.75c8.23,0,13.59,4.21,13.59,10.64,0,4.75-2.91,8.27-7.16,9.25,1.76.9,3.15,2.17,4.05,3.89l5.48,10.6h-11.66l-4.71-9.17c-1.02-1.96-2.17-2.46-5.89-2.46h-5.65v11.62h-10.8v-34.38ZM492.7,615.26c2.95,0,4.58-1.23,4.58-3.44s-1.72-3.36-4.58-3.36h-10.15v6.79h10.15Z"/>
  </g>
  <g>
    <path d="M66.79,402.53h99.26c33.67,0,50.86,12.63,50.86,37.7,0,17.54-8.42,28.94-26.13,34.55,19.99,5.26,29.99,17.54,29.99,36.83,0,23.15-14.21,38.23-49.81,38.23h-104.17v-147.31ZM152.89,462.33c13.15,0,17.71-4.03,17.71-12.1s-4.91-11.92-17.71-11.92h-39.81v24.03h39.81ZM157.63,514.06c12.1,0,16.84-4.38,16.84-11.92,0-8.07-4.56-12.1-16.84-12.1h-44.54v24.03h44.54Z"/>
    <path d="M232.15,402.53h63.48l38.93,69.8,37.18-69.8h63.48v147.31h-45.25v-98.21l-38.93,76.81h-32.62l-41.04-78.39v99.79h-45.25v-147.31Z"/>
    <path d="M534.66,506.17l-36.48,43.67h-56.82l65.76-74.18-65.76-73.13h59.27l39.28,43.67,36.48-43.67h56.82l-65.76,74.18,65.76,73.13h-59.27l-39.28-43.67Z"/>
  </g>
</svg>