<?xml version="1.0" encoding="UTF-8" standalone="no"?>
<svg
   id="Layer_1"
   version="1.1"
   viewBox="0 0 396494 171337.58"
   width="396494"
   height="171337.58"
   xmlns="http://www.w3.org/2000/svg"
   xmlns:svg="http://www.w3.org/2000/svg">
  <defs
     id="defs10" />
  <g
     id="g7"
     style="fill:#ffffff;fill-opacity:1"
     transform="matrix(1.7649882,0,0,1.7649882,-47020.746,-282242.7)">
    <path
       d="m 189.54,599.62 h 19.48 c 11.34,0 18.62,6.71 18.62,17.19 0,10.48 -7.28,17.19 -18.62,17.19 h -19.48 z m 19.48,25.54 c 4.67,0 7.78,-3.4 7.78,-8.39 0,-4.99 -3.11,-8.31 -7.78,-8.31 h -8.68 v 16.7 z"
       id="path2"
       style="fill:#ffffff;fill-opacity:1" />
    <path
       d="m 248.09,599.62 h 32.45 v 8.59 h -21.65 v 4.42 h 17.97 v 7.61 h -17.97 v 5.16 h 21.65 v 8.59 h -32.45 v -34.38 z"
       id="path3"
       style="fill:#ffffff;fill-opacity:1" />
    <path
       d="m 300.92,599.62 h 13.55 l 13.26,21.08 v -21.08 h 10.31 V 634 H 324.49 L 311.23,612.76 V 634 h -10.31 z"
       id="path4"
       style="fill:#ffffff;fill-opacity:1" />
    <path
       d="m 368.35,599.62 9.37,25.21 h 1.47 l 9.37,-25.21 H 400.1 L 386.64,634 h -16.33 l -13.46,-34.38 z"
       id="path5"
       style="fill:#ffffff;fill-opacity:1" />
    <path
       d="m 418.92,599.62 h 32.45 v 8.59 h -21.65 v 4.42 h 17.96 v 7.61 h -17.96 v 5.16 h 21.65 v 8.59 h -32.45 v -34.38 z"
       id="path6"
       style="fill:#ffffff;fill-opacity:1" />
    <path
       d="m 471.75,599.62 h 22.75 c 8.23,0 13.59,4.21 13.59,10.64 0,4.75 -2.91,8.27 -7.16,9.25 1.76,0.9 3.15,2.17 4.05,3.89 l 5.48,10.6 H 498.8 l -4.71,-9.17 c -1.02,-1.96 -2.17,-2.46 -5.89,-2.46 h -5.65 v 11.62 h -10.8 v -34.38 z m 20.95,15.64 c 2.95,0 4.58,-1.23 4.58,-3.44 0,-2.21 -1.72,-3.36 -4.58,-3.36 h -10.15 v 6.79 h 10.15 z"
       id="path7"
       style="fill:#ffffff;fill-opacity:1" />
  </g>
  <!-- Generator: Adobe Illustrator 30.0.0, SVG Export Plug-In . SVG Version: 2.1.1 Build 123)  -->
  <g
     id="g10"
     style="display:inline;fill:#ffffff;fill-opacity:1"
     transform="translate(-46753,-281771)">
    <path
       d="m 66.79,402.53 h 99.26 c 33.67,0 50.86,12.63 50.86,37.7 0,17.54 -8.42,28.94 -26.13,34.55 19.99,5.26 29.99,17.54 29.99,36.83 0,23.15 -14.21,38.23 -49.81,38.23 H 66.79 Z m 86.1,59.8 c 13.15,0 17.71,-4.03 17.71,-12.1 0,-8.07 -4.91,-11.92 -17.71,-11.92 h -39.81 v 24.03 h 39.81 z m 4.74,51.73 c 12.1,0 16.84,-4.38 16.84,-11.92 0,-8.07 -4.56,-12.1 -16.84,-12.1 h -44.54 v 24.03 h 44.54 z"
       id="path8"
       style="fill:#ffffff;fill-opacity:1" />
    <path
       d="m 232.15,402.53 h 63.48 l 38.93,69.8 37.18,-69.8 h 63.48 v 147.31 h -45.25 v -98.21 l -38.93,76.81 h -32.62 l -41.04,-78.39 v 99.79 H 232.13 V 402.53 Z"
       id="path9"
       style="fill:#ffffff;fill-opacity:1" />
    <path
       d="m 534.66,506.17 -36.48,43.67 h -56.82 l 65.76,-74.18 -65.76,-73.13 h 59.27 l 39.28,43.67 36.48,-43.67 h 56.82 l -65.76,74.18 65.76,73.13 h -59.27 z"
       id="path10"
       style="fill:#ffffff;fill-opacity:1" />
  </g>
</svg>
