<?xml version="1.0" encoding="UTF-8" standalone="no"?>
<svg
   id="Layer_1"
   version="1.1"
   viewBox="0 0 224644 24073.01"
   width="224644"
   height="24073.01"
   xmlns="http://www.w3.org/2000/svg"
   xmlns:svg="http://www.w3.org/2000/svg">
  <defs
     id="defs10" />
  <g
     id="g7"
     transform="translate(-132678,-419727)">
    <path
       d="m 189.54,599.62 h 19.48 c 11.34,0 18.62,6.71 18.62,17.19 0,10.48 -7.28,17.19 -18.62,17.19 h -19.48 z m 19.48,25.54 c 4.67,0 7.78,-3.4 7.78,-8.39 0,-4.99 -3.11,-8.31 -7.78,-8.31 h -8.68 v 16.7 z"
       id="path2" />
    <path
       d="m 248.09,599.62 h 32.45 v 8.59 h -21.65 v 4.42 h 17.97 v 7.61 h -17.97 v 5.16 h 21.65 v 8.59 h -32.45 v -34.38 z"
       id="path3" />
    <path
       d="m 300.92,599.62 h 13.55 l 13.26,21.08 v -21.08 h 10.31 V 634 H 324.49 L 311.23,612.76 V 634 h -10.31 z"
       id="path4" />
    <path
       d="m 368.35,599.62 9.37,25.21 h 1.47 l 9.37,-25.21 H 400.1 L 386.64,634 h -16.33 l -13.46,-34.38 z"
       id="path5" />
    <path
       d="m 418.92,599.62 h 32.45 v 8.59 h -21.65 v 4.42 h 17.96 v 7.61 h -17.96 v 5.16 h 21.65 v 8.59 h -32.45 v -34.38 z"
       id="path6" />
    <path
       d="m 471.75,599.62 h 22.75 c 8.23,0 13.59,4.21 13.59,10.64 0,4.75 -2.91,8.27 -7.16,9.25 1.76,0.9 3.15,2.17 4.05,3.89 l 5.48,10.6 H 498.8 l -4.71,-9.17 c -1.02,-1.96 -2.17,-2.46 -5.89,-2.46 h -5.65 v 11.62 h -10.8 v -34.38 z m 20.95,15.64 c 2.95,0 4.58,-1.23 4.58,-3.44 0,-2.21 -1.72,-3.36 -4.58,-3.36 h -10.15 v 6.79 h 10.15 z"
       id="path7" />
  </g>
  <!-- Generator: Adobe Illustrator 30.0.0, SVG Export Plug-In . SVG Version: 2.1.1 Build 123)  -->
</svg>
