<?xml version="1.0" encoding="UTF-8" standalone="no"?>
<svg
   id="Layer_1"
   version="1.1"
   viewBox="0 0 396494 103117.02"
   width="396494"
   height="103117.02"
   xmlns="http://www.w3.org/2000/svg"
   xmlns:svg="http://www.w3.org/2000/svg">
  <defs
     id="defs10" />
  <!-- Generator: Adobe Illustrator 30.0.0, SVG Export Plug-In . SVG Version: 2.1.1 Build 123)  -->
  <g
     id="g10"
     style="display:inline;fill:#ffffff"
     transform="translate(-46753,-281771.01)">
    <path
       d="m 66.79,402.53 h 99.26 c 33.67,0 50.86,12.63 50.86,37.7 0,17.54 -8.42,28.94 -26.13,34.55 19.99,5.26 29.99,17.54 29.99,36.83 0,23.15 -14.21,38.23 -49.81,38.23 H 66.79 Z m 86.1,59.8 c 13.15,0 17.71,-4.03 17.71,-12.1 0,-8.07 -4.91,-11.92 -17.71,-11.92 h -39.81 v 24.03 h 39.81 z m 4.74,51.73 c 12.1,0 16.84,-4.38 16.84,-11.92 0,-8.07 -4.56,-12.1 -16.84,-12.1 h -44.54 v 24.03 h 44.54 z"
       id="path8"
       style="fill:#ffffff" />
    <path
       d="m 232.15,402.53 h 63.48 l 38.93,69.8 37.18,-69.8 h 63.48 v 147.31 h -45.25 v -98.21 l -38.93,76.81 h -32.62 l -41.04,-78.39 v 99.79 H 232.13 V 402.53 Z"
       id="path9"
       style="fill:#ffffff" />
    <path
       d="m 534.66,506.17 -36.48,43.67 h -56.82 l 65.76,-74.18 -65.76,-73.13 h 59.27 l 39.28,43.67 36.48,-43.67 h 56.82 l -65.76,74.18 65.76,73.13 h -59.27 z"
       id="path10"
       style="fill:#ffffff" />
  </g>
</svg>
