<svg xmlns="http://www.w3.org/2000/svg" viewBox="0 0 540 420" width="540" height="420" role="img" aria-labelledby="title desc">
  <title id="title">BMX Rider with Burst</title>
  <desc id="desc">Silhouette rider on BMX with teal starburst background, clean separations for composition.</desc>
  <defs>
    <style>
      .burst { fill:#12C9D0; }
      .rider { fill:#111111; }
      .wheel { fill:none; stroke:#111111; stroke-width:22; }
      .spoke { stroke:#111111; stroke-width:18; stroke-linecap:round; }
    </style>
  </defs>

  <!-- Burst -->
  <g id="burst" class="burst">
    <polygon points="260,36 292,120 380,92 328,166 420,182 332,210 394,286 300,246 292,338 244,254 172,312 206,220 112,216 198,176 142,96 230,132" />
  </g>

  <!-- Rider and bike silhouette -->
  <g id="rider" class="rider">
    <!-- simplified yet recognizable silhouette -->
    <circle cx="322" cy="102" r="28" />
    <path d="M290 138c16-18 30-22 54-22h20c10 0 18 8 18 18s-8 18-18 18h-22l30 36c10 12 8 30-4 40-12 10-30 8-40-4l-40-48-24 28 28 46c8 14 4 32-10 40-14 8-32 4-40-10l-34-58c-6-10-4-24 4-32l42-48c8-8 18-14 30-14h16z" />
  </g>

  <!-- Wheels -->
  <g id="wheels">
    <circle cx="360" cy="274" r="66" class="wheel" />
    <circle cx="206" cy="292" r="66" class="wheel" />
    <line x1="360" y1="274" x2="360" y2="274" class="spoke" />
    <line x1="206" y1="292" x2="206" y2="292" class="spoke" />
  </g>
</svg>
