<?xml version="1.0" encoding="UTF-8"?>
<svg id="Layer_1" xmlns="http://www.w3.org/2000/svg" version="1.1" viewBox="0 0 700 700">
  <!-- Generator: Adobe Illustrator 30.0.0, SVG Export Plug-In . SVG Version: 2.1.1 Build 123)  -->
  <defs>
    <style>
      .st0 {
        fill: #fff;
      }

      .st1 {
        fill: #00ff0c;
      }
    </style>
  </defs>
  <path class="st1" d="M631.36,285.64l-5.64-19.03c-19.04-1.45-52.29-1.01-38.45-29.4,2.82-5.81,14.83-16.87,15.33-19.64.6-3.33-5.8-15.49-8.24-17.26-3.38-2.46-15.2,1.65-20.02,2.03-21.22,1.69-30.57-2.34-23.86-24.86,1.7-5.72,8.19-15.87,8.96-19.89.74-3.9-11.92-12.72-15.17-14.87-10.52,5.56-26.2,16.84-38.24,10.37-15.07-8.11.08-39.33-4.91-44.92-1.47-1.63-14-7.92-16.23-7.32-2.89.8-15.5,13.12-21,15.97-20.57,10.67-26.57-4.53-28.45-22.73-.33-3.22.7-14.69-1.06-15.88l-21.92-4.35c-2.63,16.32-27.2,40.26-41.16,21.58-5.58-7.48-8.24-19.81-11.85-28.52l-22.92.48c-5.45,18.17-13.4,48.22-37.68,29.71-6.44-4.9-12.88-13.86-16.19-21.17-2.3-1.45-20.87,3.17-21.64,5.45.77,23.31-3.73,55.24-33.94,34.66-6.46-4.4-12.43-14.82-20.74-11.59-.97.38-10.9,7.08-11.3,7.63-2.28,3.1,2.56,17.96,2.93,23.12,1.31,18.2-5.82,26.8-24.34,21.35-6.53-1.92-15.16-8.32-20.64-9.37-1.18-.23-1.11-.49-2.25.26-1.52.98-13.46,12.56-13.46,13.54,12.03,21.75,25.34,49.49-13.43,46.34-5.09-.41-14.57-4.05-18.04-3.93-2.49.08-10.94,15.19-10.23,18.19.5,2.07,10.07,11.75,12.22,14.75,5.53,7.68,12.19,18.46,3.79,26.83-9.47,9.44-26.2,5.82-38.15,8.4l-4.78,22.36c5.84,1.12,22.81,5.83,30.98,9.36l-17.38,28.33,59.38-15.76,15.57-1.41,22.19-2.01,23.41-1.9,56.08,47.62-.57-25.4-5.66-20,12.08-9.85-6.6-19.53,6.04-21.14,12.08,3.02,10.32,15.06,9.13,14.33,11.33,19.06,22.66,10.48,17.37,25.73,25.11,15.8-15.1-33.99-2.45-19.92-20.39-16.2,1.13-2.85,10.76-12.39,19.26,5.67,20.39,2.26,31.16,25.42,11.33,9.52,13.96,7.62,25.12,17.48-11.33-19.64-1.7-7.38-10.19-15.24-9.07-6.67,22.67-.96,38.89,11.43,24.55,20.96,22.27-10.98,8.88-4.39,21.53,3.4,49.62,19.48-13.86-35.63,21.8-17.09ZM498.87,256.58l-42.31,3.4-30.22-21.52-25.9-12.46-51.81,1.13-23.31-13.6-21.59-18.12-17.26,7.93-13.82,7.92-14.67,15.86-20.72,11.33-7.77,20.39-16.41-4.54-15.55,12.46-18.13-1.13-1.52.17-8.54.98c28.47-71.93,98.64-122.82,180.7-122.82s157.1,54.49,183.51,130.41l-.98.32-6.73-3.62-26.94-14.51Z"/>
  <g>
    <path class="st1" d="M190.07,598.82h19.41c11.3,0,18.55,6.69,18.55,17.13s-7.26,17.13-18.55,17.13h-19.41v-34.25ZM209.48,624.26c4.65,0,7.75-3.38,7.75-8.36s-3.1-8.28-7.75-8.28h-8.64v16.64h8.64Z"/>
    <path class="st1" d="M248.43,598.82h32.34v8.56h-21.57v4.4h17.9v7.58h-17.9v5.14h21.57v8.56h-32.34v-34.25Z"/>
    <path class="st1" d="M301.08,598.82h13.5l13.21,21v-21h10.28v34.25h-13.5l-13.21-21.16v21.16h-10.28v-34.25Z"/>
    <path class="st1" d="M368.29,598.82l9.34,25.12h1.47l9.34-25.12h11.5l-13.42,34.25h-16.27l-13.42-34.25h11.46Z"/>
    <path class="st1" d="M418.7,598.82h32.34v8.56h-21.57v4.4h17.9v7.58h-17.9v5.14h21.57v8.56h-32.34v-34.25Z"/>
    <path class="st1" d="M471.36,598.82h22.67c8.2,0,13.54,4.2,13.54,10.6,0,4.73-2.89,8.24-7.14,9.22,1.75.9,3.14,2.16,4.04,3.87l5.46,10.56h-11.62l-4.69-9.13c-1.02-1.96-2.16-2.45-5.87-2.45h-5.63v11.58h-10.77v-34.25ZM492.23,614.39c2.94,0,4.57-1.22,4.57-3.43s-1.71-3.34-4.57-3.34h-10.11v6.77h10.11Z"/>
  </g>
  <g>
    <path class="st0" d="M67.71,402.36h98.93c33.56,0,50.69,12.59,50.69,37.58,0,17.48-8.39,28.84-26.04,34.43,19.93,5.24,29.89,17.48,29.89,36.71,0,23.07-14.16,38.1-49.64,38.1h-103.83v-146.83ZM153.54,461.96c13.11,0,17.65-4.02,17.65-12.06s-4.89-11.89-17.65-11.89h-39.68v23.95h39.68ZM158.26,513.52c12.06,0,16.78-4.37,16.78-11.89,0-8.04-4.54-12.06-16.78-12.06h-44.4v23.95h44.4Z"/>
    <path class="st0" d="M232.54,402.36h63.27l38.8,69.57,37.06-69.57h63.28v146.83h-45.1v-97.88l-38.8,76.56h-32.51l-40.9-78.13v99.46h-45.1v-146.83Z"/>
    <path class="st0" d="M534.05,505.66l-36.36,43.52h-56.63l65.55-73.94-65.55-72.89h59.08l39.15,43.52,36.36-43.52h56.63l-65.55,73.94,65.55,72.89h-59.08l-39.15-43.52Z"/>
  </g>
</svg>