<?xml version="1.0" encoding="UTF-8" standalone="no"?>
<svg
   id="Layer_1"
   version="1.1"
   viewBox="0 0 490000 490000"
   width="490000"
   height="490000"
   xmlns="http://www.w3.org/2000/svg"
   xmlns:svg="http://www.w3.org/2000/svg">
  <defs
     id="defs10" />
  <!-- Generator: Adobe Illustrator 30.0.0, SVG Export Plug-In . SVG Version: 2.1.1 Build 123)  -->
  <g
     id="layer1">
    <g
       id="g17"
       transform="translate(0,-26.583129)"
       style="fill:#ffffff">
      <g
         id="g7"
         style="fill:#ffffff;fill-opacity:1"
         transform="matrix(1.7649882,0,0,1.7649882,-267.74585,-478.35354)">
        <path
           d="m 189.54,599.62 h 19.48 c 11.34,0 18.62,6.71 18.62,17.19 0,10.48 -7.28,17.19 -18.62,17.19 h -19.48 z m 19.48,25.54 c 4.67,0 7.78,-3.4 7.78,-8.39 0,-4.99 -3.11,-8.31 -7.78,-8.31 h -8.68 v 16.7 z"
           id="path2"
           style="fill:#ffffff;fill-opacity:1" />
        <path
           d="m 248.09,599.62 h 32.45 v 8.59 h -21.65 v 4.42 h 17.97 v 7.61 h -17.97 v 5.16 h 21.65 v 8.59 h -32.45 v -34.38 z"
           id="path3"
           style="fill:#ffffff;fill-opacity:1" />
        <path
           d="m 300.92,599.62 h 13.55 l 13.26,21.08 v -21.08 h 10.31 V 634 H 324.49 L 311.23,612.76 V 634 h -10.31 z"
           id="path4"
           style="fill:#ffffff;fill-opacity:1" />
        <path
           d="m 368.35,599.62 9.37,25.21 h 1.47 l 9.37,-25.21 H 400.1 L 386.64,634 h -16.33 l -13.46,-34.38 z"
           id="path5"
           style="fill:#ffffff;fill-opacity:1" />
        <path
           d="m 418.92,599.62 h 32.45 v 8.59 h -21.65 v 4.42 h 17.96 v 7.61 h -17.96 v 5.16 h 21.65 v 8.59 h -32.45 v -34.38 z"
           id="path6"
           style="fill:#ffffff;fill-opacity:1" />
        <path
           d="m 471.75,599.62 h 22.75 c 8.23,0 13.59,4.21 13.59,10.64 0,4.75 -2.91,8.27 -7.16,9.25 1.76,0.9 3.15,2.17 4.05,3.89 l 5.48,10.6 H 498.8 l -4.71,-9.17 c -1.02,-1.96 -2.17,-2.46 -5.89,-2.46 h -5.65 v 11.62 h -10.8 v -34.38 z m 20.95,15.64 c 2.95,0 4.58,-1.23 4.58,-3.44 0,-2.21 -1.72,-3.36 -4.58,-3.36 h -10.15 v 6.79 h 10.15 z"
           id="path7"
           style="fill:#ffffff;fill-opacity:1" />
      </g>
      <g
         id="g10"
         style="display:inline;fill:#ffffff;fill-opacity:1"
         transform="translate(0,-6.6489744)">
        <path
           d="m 66.79,402.53 h 99.26 c 33.67,0 50.86,12.63 50.86,37.7 0,17.54 -8.42,28.94 -26.13,34.55 19.99,5.26 29.99,17.54 29.99,36.83 0,23.15 -14.21,38.23 -49.81,38.23 H 66.79 Z m 86.1,59.8 c 13.15,0 17.71,-4.03 17.71,-12.1 0,-8.07 -4.91,-11.92 -17.71,-11.92 h -39.81 v 24.03 h 39.81 z m 4.74,51.73 c 12.1,0 16.84,-4.38 16.84,-11.92 0,-8.07 -4.56,-12.1 -16.84,-12.1 h -44.54 v 24.03 h 44.54 z"
           id="path8"
           style="fill:#ffffff;fill-opacity:1" />
        <path
           d="m 232.15,402.53 h 63.48 l 38.93,69.8 37.18,-69.8 h 63.48 v 147.31 h -45.25 v -98.21 l -38.93,76.81 h -32.62 l -41.04,-78.39 v 99.79 H 232.13 V 402.53 Z"
           id="path9"
           style="fill:#ffffff;fill-opacity:1" />
        <path
           d="m 534.66,506.17 -36.48,43.67 h -56.82 l 65.76,-74.18 -65.76,-73.13 h 59.27 l 39.28,43.67 36.48,-43.67 h 56.82 l -65.76,74.18 65.76,73.13 h -59.27 z"
           id="path10"
           style="fill:#ffffff;fill-opacity:1" />
      </g>
      <path
         d="m 632.29,278.78103 -5.66,-19.09 c -19.1,-1.45 -52.46,-1.01 -38.58,-29.5 2.83,-5.83 14.88,-16.93 15.38,-19.7 0.6,-3.34 -5.82,-15.54 -8.27,-17.32 -3.39,-2.47 -15.25,1.66 -20.09,2.04 -21.29,1.7 -30.67,-2.35 -23.94,-24.94 1.71,-5.74 8.22,-15.92 8.99,-19.96 0.74,-3.91 -11.96,-12.76 -15.22,-14.92 -10.55,5.58 -26.29,16.9 -38.37,10.4 -15.12,-8.14 0.08,-39.46 -4.93,-45.07 -1.47,-1.640004 -14.05,-7.950004 -16.28,-7.340004 -2.9,0.8 -15.55,13.160004 -21.07,16.020004 -20.64,10.71 -26.66,-4.54 -28.54,-22.800004 -0.33,-3.23 0.7,-14.74 -1.06,-15.93 l -21.99,-4.36 c -2.64,16.37 -27.29,40.390004 -41.3,21.65 -5.6,-7.5 -8.27,-19.87 -11.89,-28.61 l -23,0.48 c -5.47,18.23 -13.44,48.380004 -37.8,29.81 -6.46,-4.92 -12.92,-13.91 -16.24,-21.24 -2.31,-1.45 -20.94,3.18 -21.71,5.47 0.77,23.39 -3.74,55.420004 -34.05,34.770004 -6.48,-4.41 -12.47,-14.870004 -20.81,-11.630004 -0.97,0.38 -10.94,7.100004 -11.34,7.650004 -2.29,3.11 2.57,18.02 2.94,23.2 1.31,18.26 -5.84,26.89 -24.42,21.42 -6.55,-1.93 -15.21,-8.35 -20.71,-9.4 -1.18,-0.23 -1.11,-0.49 -2.26,0.26 -1.53,0.98 -13.5,12.6 -13.5,13.58 12.07,21.82 25.42,49.65 -13.47,46.49 -5.11,-0.41 -14.62,-4.06 -18.1,-3.94 -2.5,0.08 -10.98,15.24 -10.26,18.25 0.5,2.08 10.1,11.79 12.26,14.8 5.55,7.71 12.23,18.52 3.8,26.92 -9.5,9.47 -26.29,5.84 -38.28,8.43 l -4.8,22.43 c 5.86,1.12 22.88,5.85 31.08,9.39 l -17.44,28.42 59.58,-15.81 15.62,-1.41 22.26,-2.02 23.49,-1.91 56.26,47.78 -0.57,-25.48 -5.68,-20.07 12.12,-9.88 -6.62,-19.59 6.06,-21.21 12.12,3.03 10.35,15.11 9.16,14.38 11.37,19.12 22.73,10.51 17.43,25.81 25.19,15.85 -15.15,-34.1 -2.46,-19.99 -20.46,-16.25 1.13,-2.86 10.8,-12.43 19.32,5.69 20.46,2.27 31.26,25.5 11.37,9.55 14.01,7.65 25.2,17.54 -11.37,-19.7 -1.71,-7.4 -10.22,-15.29 -9.1,-6.69 22.74,-0.96 39.02,11.47 24.63,21.03 22.34,-11.02 8.91,-4.4 21.6,3.41 49.78,19.54 -13.91,-35.75 z m -132.93,-29.16 -42.45,3.41 -30.32,-21.59 -25.99,-12.5 -51.98,1.13 -23.39,-13.64 -21.66,-18.18 -17.32,7.96 -13.87,7.95 -14.72,15.91 -20.79,11.37 -7.8,20.46 -16.46,-4.55 -15.6,12.5 -18.19,-1.13 -1.53,0.17 -8.57,0.98 c 28.56,-72.17 98.96,-123.22 181.29,-123.22 82.33,0 157.62,54.67 184.11,130.84 l -0.98,0.32 -6.75,-3.63 z"
         id="path1"
         style="fill:#ffffff;fill-opacity:1" />
      <text
         xml:space="preserve"
         style="font-size:17.3611px;text-align:start;writing-mode:lr-tb;direction:ltr;text-anchor:start;fill:#ffffff;fill-opacity:1;stroke-width:1.44676"
         x="66.269165"
         y="692.49579"
         id="text17"><tspan
           id="tspan17"
           x="66.269165"
           y="692.49579"
           style="font-style:normal;font-variant:normal;font-weight:normal;font-stretch:normal;font-size:17.3611px;font-family:MODERNIZ;-inkscape-font-specification:'MODERNIZ, Normal';font-variant-ligatures:normal;font-variant-caps:normal;font-variant-numeric:normal;font-variant-east-asian:normal;fill:#ffffff;stroke-width:1.44676">County line | dacono | mile high | twin silo</tspan></text>
    </g>
  </g>
</svg>
