<?xml version="1.0" encoding="UTF-8" standalone="no"?>
<svg
   id="Layer_1"
   version="1.1"
   viewBox="0 0 395198.97 209838.98"
   width="395198.97"
   height="209838.98"
   xmlns="http://www.w3.org/2000/svg"
   xmlns:svg="http://www.w3.org/2000/svg">
  <defs
     id="defs10" />
  <!-- Generator: Adobe Illustrator 30.0.0, SVG Export Plug-In . SVG Version: 2.1.1 Build 123)  -->
  <path
     d="m -46771.71,-45914.571 -5.66,-19.09 c -19.1,-1.45 -52.46,-1.01 -38.58,-29.5 2.83,-5.83 14.88,-16.93 15.38,-19.7 0.6,-3.34 -5.82,-15.54 -8.27,-17.32 -3.39,-2.47 -15.25,1.66 -20.09,2.04 -21.29,1.7 -30.67,-2.35 -23.94,-24.94 1.71,-5.74 8.22,-15.92 8.99,-19.96 0.74,-3.91 -11.96,-12.76 -15.22,-14.92 -10.55,5.58 -26.29,16.9 -38.37,10.4 -15.12,-8.14 0.08,-39.46 -4.93,-45.07 -1.47,-1.64 -14.05,-7.95 -16.28,-7.34 -2.9,0.8 -15.55,13.16 -21.07,16.02 -20.64,10.71 -26.66,-4.54 -28.54,-22.8 -0.33,-3.23 0.7,-14.74 -1.06,-15.93 l -21.99,-4.36 c -2.64,16.37 -27.29,40.39 -41.3,21.65 -5.6,-7.5 -8.27,-19.87 -11.89,-28.61 l -23,0.48 c -5.47,18.23 -13.44,48.38 -37.8,29.81 -6.46,-4.92 -12.92,-13.91 -16.24,-21.24 -2.31,-1.45 -20.94,3.18 -21.71,5.47 0.77,23.39 -3.74,55.42 -34.05,34.77 -6.48,-4.41 -12.47,-14.87 -20.81,-11.63 -0.97,0.38 -10.94,7.1 -11.34,7.65 -2.29,3.11 2.57,18.02 2.94,23.2 1.31,18.26 -5.84,26.89 -24.42,21.42 -6.55,-1.93 -15.21,-8.35 -20.71,-9.4 -1.18,-0.23 -1.11,-0.49 -2.26,0.26 -1.53,0.98 -13.5,12.6 -13.5,13.58 12.07,21.82 25.42,49.65 -13.47,46.49 -5.11,-0.41 -14.62,-4.06 -18.1,-3.94 -2.5,0.08 -10.98,15.24 -10.26,18.25 0.5,2.08 10.1,11.79 12.26,14.8 5.55,7.71 12.23,18.52 3.8,26.92 -9.5,9.47 -26.29,5.84 -38.28,8.43 l -4.8,22.43 c 5.86,1.12 22.88,5.85 31.08,9.39 l -17.44,28.42 59.58,-15.81 15.62,-1.41 22.26,-2.02 23.49,-1.91 56.26,47.78 -0.57,-25.48 -5.68,-20.07 12.12,-9.88 -6.62,-19.59 6.06,-21.21 12.12,3.03 10.35,15.11 9.16,14.38 11.37,19.12 22.73,10.51 17.43,25.81 25.19,15.85 -15.15,-34.1 -2.46,-19.99 -20.46,-16.25 1.13,-2.86 10.8,-12.43 19.32,5.69 20.46,2.27 31.26,25.5 11.37,9.55 14.01,7.65 25.2,17.54 -11.37,-19.7 -1.71,-7.4 -10.22,-15.29 -9.1,-6.69 22.74,-0.96 39.02,11.47 24.63,21.03 22.34,-11.02 8.91,-4.4 21.6,3.41 49.78,19.54 -13.91,-35.75 z m -132.93,-29.16 -42.45,3.41 -30.32,-21.59 -25.99,-12.5 -51.98,1.13 -23.39,-13.64 -21.66,-18.18 -17.32,7.96 -13.87,7.95 -14.72,15.91 -20.79,11.37 -7.8,20.46 -16.46,-4.55 -15.6,12.5 -18.19,-1.13 -1.53,0.17 -8.57,0.98 c 28.56,-72.17 98.96,-123.22 181.29,-123.22 82.33,0 157.62,54.67 184.11,130.84 l -0.98,0.32 -6.75,-3.63 z"
     id="path1"
     style="fill:#ffffff" />
</svg>
